  <svg width="65" height="550" viewBox="0 0 38 124" fill="none" xmlns="http://www.w3.org/2000/svg">
          <path d="M22.5779 123.422C7.48123 108.326 3.22375e-06 87.8499 0 66.5C-3.22375e-06 45.1501 7.48122 24.6748 22.5779 9.57812L26.5 14.5C12.9047 28.0953 7.00596 47.2736 7.00597 66.5002C7.00597 85.7268 12.9047 105.905 26.5 119.5L22.5779 123.422Z" fill="url(#paint0_linear_1597_123)"/>
          <path d="M38 9.5C38 14.7467 33.7467 19 28.5 19C23.2533 19 19 14.7467 19 9.5C19 4.25329 23.2533 0 28.5 0C33.7467 0 38 4.25329 38 9.5Z" fill="#FF6767"/>
          <defs>
          <linearGradient id="paint0_linear_1597_123" x1="20.2468" y1="0" x2="20.2468" y2="123.422" gradientUnits="userSpaceOnUse">
          <stop stop-color="#D8B18B"/>
          <stop offset="1" stop-color="#EF7A7D"/>
          </linearGradient>
          </defs>
          </svg>